<svg width="200" height="200" xmlns="http://www.w3.org/2000/svg">
 <g>
  <title>Layer 1</title>
  <path fill="#ABD1E2" d="m152.5,60.5c14.4,15.6 24,37.4 18.4,53.3c-5.5,16 -26.2,26.1 -47.3,36.9c-21.1,10.8 -42.7,22.3 -62.9,17.7c-20.3,-4.7 -39.2,-25.4 -42.2,-47.3c-3,-21.9 9.9,-44.9 26.1,-61c16.2,-16 35.8,-25.1 55.1,-24.9c19.4,0.2 38.5,9.7 52.8,25.3z" id="svg_1"/>
  <path d="m129.83073,116.93358c9.75855,0 17.66928,-7.91095 17.66928,-17.6695c0,-8.38274 -5.83964,-15.39716 -13.67146,-17.20947c-0.16019,-17.73686 -14.58575,-32.06661 -32.36046,-32.06661c-12.20326,0 -22.82712,6.755 -28.34126,16.72891c-1.67779,-0.72608 -3.5271,-1.13029 -5.47137,-1.13029c-7.00415,0 -12.78477,5.22285 -13.66975,11.98555c-9.11395,1.80718 -15.98572,9.84474 -15.98572,19.48929c0,10.97524 8.89709,19.87212 19.8719,19.87212c3.05702,0 69.86444,0 71.95884,0z" fill="#EDFFFF" id="svg_2" stroke="null"/>
 </g>

</svg>